<svg width="249" height="513" viewBox="0 0 249 513" fill="none" xmlns="http://www.w3.org/2000/svg">
<path d="M149.616 225.926C105.116 210.566 62.8129 198.051 62.8129 160.789C62.8129 125.802 99.6218 113.286 122.421 113.286C149.067 113.286 165.548 126.371 174.888 138.886C182.854 149.695 196.589 153.962 208.675 148.842C225.706 141.446 231.475 119.26 219.938 103.9C206.752 85.6954 184.227 66.0687 147.968 59.8109V29.0909C147.968 13.4465 135.607 0.646484 120.499 0.646484C105.39 0.646484 93.0292 13.4465 93.0292 29.0909V60.6643C55.3962 68.3443 5.40191 100.202 5.40191 161.926C5.40191 235.029 68.8561 257.5 115.829 274.851C167.746 293.909 190.82 311.544 190.82 344.255C190.82 382.94 156.483 398.869 125.718 398.869C86.9859 398.869 66.1092 372.415 55.3962 351.651C48.8035 338.282 32.8713 333.162 19.686 338.851L18.0378 339.704C2.65499 346.246 -4.21236 364.735 3.20437 380.095C16.6644 407.118 42.4856 440.113 93.0292 452.06V484.202C93.0292 499.846 105.39 512.646 120.499 512.646C135.607 512.646 147.968 499.846 147.968 484.202V453.482C149.616 453.198 248.78 441.82 248.78 343.402C249.33 279.971 208.95 247.26 149.616 225.926Z" fill="#00A4E0"/>
</svg>
