<svg width="288" height="512" viewBox="0 0 288 512" fill="none" xmlns="http://www.w3.org/2000/svg">
<circle cx="147.115" cy="471.04" r="40.96" fill="black"/>
<path fill-rule="evenodd" clip-rule="evenodd" d="M143.917 119.864C125.986 119.864 111.451 134.613 111.451 152.808C111.451 171.002 125.986 185.752 143.917 185.752C161.848 185.752 176.384 171.002 176.384 152.808C176.384 134.613 161.848 119.864 143.917 119.864ZM80.4377 152.808C80.4377 117.233 108.858 88.3948 143.917 88.3948C178.976 88.3948 207.397 117.233 207.397 152.808C207.397 188.382 178.976 217.221 143.917 217.221C108.858 217.221 80.4377 188.382 80.4377 152.808Z" fill="black"/>
<path fill-rule="evenodd" clip-rule="evenodd" d="M42.262 42.255C69.2226 15.1996 105.789 0 143.917 0C182.045 0 218.612 15.1996 245.572 42.255C272.533 69.3104 287.679 106.005 287.679 144.268C287.679 160.584 285.954 174.933 281.469 188.512C276.96 202.161 269.92 214.258 260.224 226.399C260.099 226.555 259.971 226.709 259.841 226.86L155.662 347.489C152.71 350.907 148.425 352.871 143.917 352.871C139.41 352.871 135.124 350.907 132.172 347.489L27.9934 226.86C27.8629 226.709 27.7353 226.555 27.6107 226.399C17.914 214.258 10.8741 202.161 6.36569 188.512C1.88023 174.933 0.155029 160.584 0.155029 144.268C0.155029 106.005 15.3014 69.3104 42.262 42.255ZM143.917 31.193C114.033 31.193 85.3728 43.1062 64.2415 64.3118C43.1102 85.5174 31.2387 114.278 31.2387 144.268C31.2387 158.382 32.7351 169.205 35.8707 178.698C38.9594 188.048 43.8876 196.861 51.6838 206.663L143.917 313.46L236.151 206.663C243.947 196.861 248.875 188.048 251.964 178.698C255.099 169.205 256.596 158.382 256.596 144.268C256.596 114.278 244.724 85.5174 223.593 64.3118C202.462 43.1062 173.801 31.193 143.917 31.193Z" fill="black"/>
</svg>
