<svg width="513" height="513" viewBox="0 0 513 513" fill="none" xmlns="http://www.w3.org/2000/svg">
<path d="M256.477 0.948242C115.165 0.948242 0.477295 115.636 0.477295 256.948C0.477295 398.26 115.165 512.948 256.477 512.948C397.789 512.948 512.477 398.26 512.477 256.948C512.477 115.636 397.789 0.948242 256.477 0.948242ZM282.077 436.148H230.877V384.948H282.077V436.148ZM335.069 237.748L312.029 261.3C293.597 279.988 282.077 295.348 282.077 333.748H230.877V320.948C230.877 292.788 242.397 267.188 260.829 248.5L292.573 216.244C302.045 207.028 307.677 194.228 307.677 180.148C307.677 151.988 284.637 128.948 256.477 128.948C228.317 128.948 205.277 151.988 205.277 180.148H154.077C154.077 123.572 199.901 77.7482 256.477 77.7482C313.053 77.7482 358.877 123.572 358.877 180.148C358.877 202.676 349.661 223.156 335.069 237.748Z" fill="#00A4E0"/>
</svg>
