<svg width="334" height="318" viewBox="0 0 334 318" fill="none" xmlns="http://www.w3.org/2000/svg">
<path d="M259.52 317.982C256.818 317.975 254.158 317.313 251.769 316.053L166.816 271.506L81.8627 316.053C79.112 317.491 76.0133 318.133 72.9162 317.908C69.8191 317.683 66.8466 316.599 64.3339 314.779C61.8212 312.96 59.8682 310.476 58.6952 307.608C57.5222 304.741 57.1758 301.604 57.6951 298.55L73.9124 204.202L5.17633 137.381C2.95274 135.216 1.38041 132.474 0.636889 129.465C-0.10663 126.455 0.00827152 123.299 0.968622 120.351C1.92897 117.403 3.69652 114.782 6.07168 112.784C8.44683 110.785 11.335 109.488 14.41 109.04L109.397 95.2769L151.882 9.43974C153.413 6.84403 155.596 4.69201 158.217 3.1968C160.838 1.70159 163.805 0.915039 166.824 0.915039C169.844 0.915039 172.811 1.70159 175.432 3.1968C178.052 4.69201 180.236 6.84403 181.767 9.43974L224.235 95.2769L319.222 109.04C322.297 109.488 325.185 110.785 327.56 112.784C329.935 114.782 331.703 117.403 332.663 120.351C333.624 123.299 333.739 126.455 332.995 129.465C332.252 132.474 330.679 135.216 328.456 137.381L259.72 204.202L275.954 298.55C276.364 300.935 276.247 303.381 275.611 305.716C274.975 308.051 273.835 310.22 272.272 312.07C270.709 313.92 268.759 315.408 266.559 316.429C264.359 317.45 261.963 317.98 259.536 317.982H259.52Z" fill="white"/>
<path fill-rule="evenodd" clip-rule="evenodd" d="M258.751 302.777L258.767 302.786C259.004 302.911 259.27 302.978 259.542 302.982C259.786 302.979 260.025 302.925 260.244 302.824C260.466 302.72 260.66 302.571 260.814 302.389C260.967 302.208 261.077 301.998 261.138 301.775C261.198 301.552 261.21 301.319 261.171 301.092L243.597 198.957L317.991 126.634C317.993 126.633 317.994 126.631 317.995 126.63C318.213 126.417 318.363 126.152 318.433 125.867C318.504 125.58 318.493 125.279 318.401 124.998C318.309 124.716 318.139 124.459 317.902 124.261C317.667 124.062 317.376 123.93 317.062 123.884C317.061 123.884 317.06 123.883 317.059 123.883L214.285 108.992L168.68 16.8155C168.497 16.5793 168.266 16.378 167.998 16.2256C167.644 16.0231 167.239 15.915 166.824 15.915C166.41 15.915 166.005 16.0231 165.65 16.2256C165.383 16.3781 165.152 16.5796 164.968 16.816L119.346 108.992L16.5733 123.883C16.572 123.884 16.5706 123.884 16.5692 123.884C16.2555 123.93 15.9651 124.063 15.7296 124.261C15.4935 124.459 15.3226 124.716 15.2307 124.998C15.139 125.279 15.1281 125.58 15.199 125.867C15.2697 126.153 15.4202 126.419 15.6391 126.633C15.6397 126.633 15.6402 126.634 15.6408 126.634L90.0342 198.955L72.4828 301.065C72.4824 301.067 72.4821 301.069 72.4817 301.071C72.4339 301.359 72.4668 301.656 72.5786 301.929C72.6912 302.205 72.8812 302.449 73.1324 302.631C73.384 302.813 73.6856 302.924 74.0036 302.947C74.3186 302.97 74.632 302.905 74.9082 302.763C74.9109 302.762 74.9136 302.76 74.9163 302.759L166.816 254.569L258.751 302.777ZM57.6951 298.55L73.9124 204.202L5.17633 137.381C2.95274 135.216 1.38041 132.474 0.636889 129.465C-0.10663 126.455 0.00827152 123.299 0.968622 120.351C1.92897 117.403 3.69652 114.782 6.07168 112.784C8.44683 110.785 11.335 109.488 14.41 109.04L109.397 95.2769L151.882 9.43974C153.413 6.84403 155.596 4.69201 158.217 3.1968C160.838 1.70159 163.805 0.915039 166.824 0.915039C169.844 0.915039 172.811 1.70159 175.432 3.1968C178.052 4.69201 180.236 6.84403 181.767 9.43974L224.235 95.2769L319.222 109.04C322.297 109.488 325.185 110.785 327.56 112.784C329.935 114.782 331.703 117.403 332.663 120.351C333.624 123.299 333.739 126.455 332.995 129.465C332.252 132.474 330.679 135.216 328.456 137.381L259.72 204.202L275.954 298.55C276.364 300.935 276.247 303.381 275.611 305.716C274.975 308.051 273.835 310.22 272.272 312.07C270.708 313.92 268.759 315.408 266.559 316.429C264.359 317.45 261.963 317.98 259.536 317.982H259.52C256.818 317.975 254.158 317.313 251.769 316.053L166.816 271.506L81.8627 316.053C79.112 317.491 76.0133 318.133 72.9162 317.908C69.8191 317.683 66.8466 316.599 64.3339 314.779C61.8212 312.96 59.8683 310.476 58.6952 307.608C57.5222 304.741 57.1758 301.604 57.6951 298.55Z" fill="#FDC500"/>
</svg>
