<svg width="288" height="512" viewBox="0 0 288 512" fill="none" xmlns="http://www.w3.org/2000/svg">
<circle cx="141.359" cy="471.04" r="40.96" fill="black"/>
<path d="M141.616 70.592C165.113 70.592 182.433 88.1146 182.433 111.919C182.433 135.723 165.113 153.246 141.616 153.246C118.133 153.246 100.8 135.723 100.8 111.919C100.8 88.1146 118.133 70.592 141.616 70.592ZM75.9968 208.397C83.5887 184.662 109.956 167.071 141.616 167.071C173.276 167.071 199.658 184.662 207.236 208.397H75.9968Z" fill="black"/>
<path fill-rule="evenodd" clip-rule="evenodd" d="M42.5064 42.255C69.4671 15.1996 106.034 0 144.162 0C182.29 0 218.856 15.1996 245.817 42.255C272.778 69.3105 287.924 106.006 287.924 144.268C287.924 160.584 286.199 174.933 281.713 188.512C277.205 202.161 270.165 214.258 260.468 226.399C260.344 226.555 260.216 226.709 260.086 226.86L155.906 347.489C152.954 350.907 148.669 352.871 144.162 352.871C139.654 352.871 135.369 350.907 132.417 347.489L28.2378 226.86C28.1073 226.709 27.9797 226.555 27.8551 226.399C18.1584 214.258 11.1185 202.161 6.61008 188.512C2.12462 174.933 0.399414 160.584 0.399414 144.268C0.399414 106.006 15.5458 69.3105 42.5064 42.255ZM144.162 31.193C114.277 31.193 85.6173 43.1062 64.4859 64.3118C43.3546 85.5175 31.4831 114.278 31.4831 144.268C31.4831 158.382 32.9795 169.205 36.1151 178.698C39.2038 188.048 44.132 196.861 51.9282 206.663L144.162 313.461L236.395 206.663C244.191 196.861 249.12 188.049 252.208 178.698C255.344 169.205 256.84 158.382 256.84 144.268C256.84 114.278 244.969 85.5175 223.837 64.3118C202.706 43.1062 174.046 31.193 144.162 31.193Z" fill="black"/>
</svg>
