<svg width="468" height="513" viewBox="0 0 468 513" fill="none" xmlns="http://www.w3.org/2000/svg">
<path fill-rule="evenodd" clip-rule="evenodd" d="M215.653 49.4483C227.629 48.3913 239.673 48.3913 251.649 49.4483C252.784 49.5443 255.053 50.6003 255.967 54.1204L265.076 89.4818C269.71 107.402 282.412 120.427 296.502 127.531C301.986 130.283 307.25 133.387 312.293 136.811C325.437 145.708 342.867 150.348 360.519 145.452L395.254 135.755C398.721 134.795 400.769 136.267 401.4 137.228C408.303 147.148 414.323 157.74 419.461 168.877C419.902 169.869 420.154 172.397 417.601 174.957L391.912 200.75C378.958 213.742 374.198 231.375 375.207 247.344C375.595 253.546 375.595 259.766 375.207 265.968C374.198 281.937 378.958 299.569 391.912 312.562L417.601 338.355C420.123 340.915 419.902 343.443 419.461 344.435C414.37 355.514 408.326 366.116 401.4 376.116C400.769 377.044 398.689 378.484 395.254 377.556L360.487 367.86C342.867 362.964 325.437 367.604 312.293 376.5C307.25 379.924 301.986 383.029 296.533 385.781C282.381 392.885 269.71 405.877 265.076 423.83L255.967 459.191C255.053 462.711 252.784 463.767 251.649 463.863C239.673 464.917 227.629 464.917 215.653 463.863C214.519 463.767 212.249 462.679 211.335 459.191L202.226 423.83C197.592 405.909 184.89 392.885 170.8 385.781C165.346 383.034 160.071 379.934 155.009 376.5C141.865 367.604 124.435 362.964 106.784 367.86L72.0487 377.556C68.5815 378.516 66.5327 377.044 65.9023 376.084C58.9772 366.094 52.9335 355.503 47.8414 344.435C47.4001 343.443 47.148 340.915 49.7011 338.355L75.3898 312.562C88.3444 299.569 93.1039 281.937 92.0953 265.968C91.707 259.766 91.707 253.546 92.0953 247.344C93.1039 231.375 88.3444 213.742 75.3898 200.75L49.7011 174.957C47.1795 172.397 47.4001 169.869 47.8414 168.877C52.9242 157.793 58.9683 147.191 65.9023 137.196C66.5327 136.267 68.613 134.795 72.0487 135.755L106.815 145.452C124.435 150.348 141.865 145.708 155.009 136.811C160.052 133.387 165.316 130.283 170.769 127.531C184.921 120.427 197.592 107.434 202.226 89.4818L211.335 54.1204C212.249 50.6003 214.519 49.5443 215.653 49.4483ZM233.651 0.646484C226.212 0.646484 218.837 0.966496 211.556 1.60652C188.136 3.6866 170.895 21.2872 165.6 41.96L156.459 77.3533C155.923 79.4654 154 82.4095 149.808 84.5216C142.536 88.1757 135.503 92.3018 128.753 96.874C124.876 99.4981 121.409 99.7541 119.297 99.1461L84.562 89.4818C64.2633 83.8175 40.6864 90.1218 27.1959 109.642C18.6846 121.936 11.2591 134.968 5.00588 148.588C-4.92288 170.189 1.50717 194.094 16.4476 209.102L42.1363 234.895C43.7123 236.431 45.2253 239.599 44.91 244.303C44.3949 252.53 44.3949 260.782 44.91 269.008C45.2253 273.712 43.7123 276.881 42.1363 278.417L16.4476 304.21C1.50717 319.218 -4.92288 343.123 5.00588 364.724C11.3099 378.42 18.7485 391.445 27.1959 403.701C40.6864 423.19 64.2633 429.494 84.562 423.862L119.328 414.166C121.409 413.558 124.876 413.814 128.753 416.438C135.467 421.014 142.496 425.142 149.808 428.79C154 430.902 155.923 433.846 156.49 435.958L165.6 471.352C170.927 492.025 188.136 509.625 211.556 511.673C226.258 512.971 241.044 512.971 255.747 511.673C279.166 509.625 296.407 492.025 301.703 471.352L310.843 435.958C311.379 433.846 313.302 430.902 317.494 428.79C324.767 425.137 331.8 421.011 338.549 416.438C342.426 413.814 345.893 413.558 348.005 414.166L382.74 423.83C403.039 429.494 426.616 423.19 440.106 403.669C448.554 391.445 456.024 378.42 462.296 364.724C472.225 343.123 465.795 319.218 450.823 304.21L425.166 278.417C423.59 276.881 422.077 273.712 422.392 269.008C422.906 260.782 422.906 252.53 422.392 244.303C422.077 239.599 423.621 236.431 425.166 234.895L450.823 209.102C465.795 194.094 472.225 170.189 462.296 148.588C456.043 134.958 448.617 121.915 440.106 109.61C426.616 90.1218 403.039 83.8175 382.74 89.4497L347.974 99.1461C345.893 99.7541 342.426 99.4981 338.549 96.874C331.799 92.3015 324.767 88.1755 317.494 84.5216C313.302 82.4095 311.379 79.4654 310.812 77.3533L301.734 41.928C296.376 21.2872 279.166 3.6866 255.747 1.63852C248.399 0.983721 241.027 0.652731 233.651 0.646484V0.646484ZM280.931 256.656C280.931 269.387 275.95 281.596 267.083 290.598C258.216 299.6 246.19 304.658 233.651 304.658C221.112 304.658 209.086 299.6 200.219 290.598C191.353 281.596 186.371 269.387 186.371 256.656C186.371 243.925 191.353 231.716 200.219 222.714C209.086 213.711 221.112 208.654 233.651 208.654C246.19 208.654 258.216 213.711 267.083 222.714C275.95 231.716 280.931 243.925 280.931 256.656ZM328.211 256.656C328.211 282.118 318.248 306.536 300.515 324.541C282.781 342.545 258.73 352.659 233.651 352.659C208.572 352.659 184.521 342.545 166.787 324.541C149.054 306.536 139.091 282.118 139.091 256.656C139.091 231.194 149.054 206.775 166.787 188.771C184.521 170.767 208.572 160.652 233.651 160.652C258.73 160.652 282.781 170.767 300.515 188.771C318.248 206.775 328.211 231.194 328.211 256.656Z" fill="#00A4E0"/>
</svg>
