<svg width="560" height="730" viewBox="0 0 560 730" fill="none" xmlns="http://www.w3.org/2000/svg">
<g filter="url(#filter0_d)">
<path fill-rule="evenodd" clip-rule="evenodd" d="M89.6714 19.762C51.0115 19.762 19.6714 51.102 19.6714 89.7619V465.682C19.6714 504.341 51.0115 535.682 89.6714 535.682H237.527C237.55 535.716 237.574 535.75 237.597 535.784L265.895 576.555C271.862 585.151 284.574 585.151 290.541 576.555L318.838 535.784C318.862 535.75 318.886 535.716 318.909 535.682H466.763C505.423 535.682 536.763 504.341 536.763 465.682V89.762C536.763 51.102 505.423 19.762 466.763 19.762H89.6714Z" fill="#00A4E0"/>
</g>
<path d="M408.094 227.237H376.225L367.367 204.894C358.265 181.922 336.541 167.082 312.018 167.082H244.415C219.897 167.082 198.168 181.922 189.06 204.894L180.203 227.237H148.339C144.181 227.237 141.131 231.18 142.143 235.246L145.336 248.136C146.044 251.004 148.599 253.018 151.532 253.018H162.216C155.067 259.318 150.463 268.476 150.463 278.799V304.58C150.463 313.238 153.742 321.053 158.979 327.101V356.142C158.979 365.633 166.607 373.329 176.013 373.329H193.047C202.453 373.329 210.081 365.633 210.081 356.142V338.955H346.352V356.142C346.352 365.633 353.98 373.329 363.386 373.329H380.42C389.826 373.329 397.453 365.633 397.453 356.142V327.101C402.691 321.058 405.97 313.244 405.97 304.58V278.799C405.97 268.476 401.366 259.318 394.222 253.018H404.906C407.839 253.018 410.394 251.004 411.102 248.136L414.296 235.246C415.302 231.18 412.252 227.237 408.094 227.237ZM220.69 217.661C224.57 207.875 233.966 201.456 244.415 201.456H312.018C322.467 201.456 331.862 207.875 335.743 217.661L346.352 244.425H210.081L220.69 217.661ZM193.047 304.473C182.827 304.473 176.013 297.619 176.013 287.339C176.013 277.059 182.827 270.206 193.047 270.206C203.267 270.206 218.598 285.626 218.598 295.906C218.598 306.186 203.267 304.473 193.047 304.473ZM363.386 304.473C353.165 304.473 337.835 306.186 337.835 295.906C337.835 285.626 353.165 270.206 363.386 270.206C373.606 270.206 380.42 277.059 380.42 287.339C380.42 297.619 373.606 304.473 363.386 304.473Z" fill="white"/>
<path fill-rule="evenodd" clip-rule="evenodd" d="M248.017 663.237C248.017 655.423 251.121 647.929 256.647 642.403C262.172 636.877 269.666 633.773 277.481 633.773C285.295 633.773 292.789 636.877 298.315 642.403C303.84 647.929 306.945 655.423 306.945 663.237C306.945 671.051 303.84 678.546 298.315 684.071C292.789 689.597 285.295 692.701 277.481 692.701C269.666 692.701 262.172 689.597 256.647 684.071C251.121 678.546 248.017 671.051 248.017 663.237ZM277.481 670.603C275.527 670.603 273.654 669.827 272.272 668.446C270.891 667.064 270.115 665.191 270.115 663.237C270.115 661.284 270.891 659.41 272.272 658.029C273.654 656.647 275.527 655.871 277.481 655.871C279.434 655.871 281.308 656.647 282.689 658.029C284.071 659.41 284.847 661.284 284.847 663.237C284.847 665.191 284.071 667.064 282.689 668.446C281.308 669.827 279.434 670.603 277.481 670.603Z" fill="#00A4E0"/>
<path fill-rule="evenodd" clip-rule="evenodd" d="M211.187 663.237C211.187 654.531 212.902 645.911 216.233 637.867C219.565 629.824 224.448 622.516 230.604 616.36C236.76 610.204 244.068 605.321 252.111 601.989C260.154 598.658 268.775 596.943 277.481 596.943C286.187 596.943 294.807 598.658 302.85 601.989C310.894 605.321 318.202 610.204 324.358 616.36C330.514 622.516 335.397 629.824 338.728 637.867C342.06 645.911 343.775 654.531 343.775 663.237C343.775 680.819 336.79 697.681 324.358 710.114C311.925 722.546 295.063 729.531 277.481 729.531C259.899 729.531 243.037 722.546 230.604 710.114C218.172 697.681 211.187 680.819 211.187 663.237ZM277.481 714.799C270.71 714.799 264.005 713.465 257.749 710.874C251.493 708.283 245.809 704.485 241.021 699.697C236.233 694.909 232.435 689.225 229.844 682.969C227.253 676.713 225.919 670.008 225.919 663.237C225.919 656.466 227.253 649.761 229.844 643.505C232.435 637.249 236.233 631.565 241.021 626.777C245.809 621.989 251.493 618.191 257.749 615.6C264.005 613.009 270.71 611.675 277.481 611.675C291.156 611.675 304.271 617.107 313.941 626.777C323.61 636.447 329.043 649.562 329.043 663.237C329.043 676.912 323.61 690.027 313.941 699.697C304.271 709.366 291.156 714.799 277.481 714.799Z" fill="#00A4E0"/>
<defs>
<filter id="filter0_d" x="0.671387" y="0.761963" width="559.092" height="605.24" filterUnits="userSpaceOnUse" color-interpolation-filters="sRGB">
<feFlood flood-opacity="0" result="BackgroundImageFix"/>
<feColorMatrix in="SourceAlpha" type="matrix" values="0 0 0 0 0 0 0 0 0 0 0 0 0 0 0 0 0 0 127 0"/>
<feOffset dx="2" dy="2"/>
<feGaussianBlur stdDeviation="10.5"/>
<feColorMatrix type="matrix" values="0 0 0 0 0 0 0 0 0 0 0 0 0 0 0 0 0 0 0.15 0"/>
<feBlend mode="normal" in2="BackgroundImageFix" result="effect1_dropShadow"/>
<feBlend mode="normal" in="SourceGraphic" in2="effect1_dropShadow" result="shape"/>
</filter>
</defs>
</svg>
