<svg width="513" height="491" viewBox="0 0 513 491" fill="none" xmlns="http://www.w3.org/2000/svg">
<path d="M399.125 490.516C394.974 490.506 390.889 489.484 387.22 487.538L256.729 418.73L126.238 487.538C122.013 489.758 117.253 490.75 112.496 490.402C107.738 490.054 103.173 488.381 99.3129 485.57C95.4534 482.759 92.4536 478.923 90.6518 474.494C88.85 470.064 88.3179 465.219 89.1155 460.502L114.026 314.773L8.44501 211.561C5.0295 208.217 2.61436 203.982 1.47229 199.334C0.330217 194.686 0.50671 189.81 1.98184 185.257C3.45697 180.704 6.17198 176.656 9.82029 173.568C13.4686 170.481 17.9049 168.479 22.6283 167.786L168.531 146.528L233.79 13.9441C236.141 9.93473 239.495 6.61075 243.521 4.30125C247.546 1.99175 252.104 0.776855 256.742 0.776855C261.379 0.776855 265.937 1.99175 269.963 4.30125C273.988 6.61075 277.343 9.93473 279.693 13.9441L344.926 146.528L490.829 167.786C495.553 168.479 499.989 170.481 503.637 173.568C507.286 176.656 510.001 180.704 511.476 185.257C512.951 189.81 513.127 194.686 511.985 199.334C510.843 203.982 508.428 208.217 505.012 211.561L399.432 314.773L424.368 460.502C424.997 464.186 424.818 467.963 423.841 471.57C422.864 475.177 421.114 478.527 418.712 481.385C416.311 484.243 413.316 486.541 409.937 488.118C406.559 489.695 402.877 490.514 399.15 490.516H399.125Z" fill="#00A4E0"/>
</svg>
