<svg width="513" height="513" viewBox="0 0 513 513" fill="none" xmlns="http://www.w3.org/2000/svg">
<path d="M260.069 91.3013C262.934 91.3028 265.743 92.099 268.18 93.6006C270.617 95.1023 272.587 97.2501 273.868 99.8035L313.689 179.107L401.205 191.776C404.056 192.188 406.734 193.387 408.936 195.237C411.139 197.086 412.777 199.513 413.667 202.242C414.557 204.971 414.662 207.894 413.971 210.68C413.28 213.466 411.82 216.003 409.756 218.005L346.056 279.873L360.38 367.11C360.84 369.934 360.5 372.83 359.398 375.472C358.296 378.114 356.476 380.397 354.143 382.065C351.809 383.733 349.055 384.719 346.189 384.913C343.323 385.107 340.46 384.5 337.922 383.161L260.069 342.018L182.215 383.161C179.677 384.5 176.814 385.107 173.949 384.913C171.083 384.719 168.328 383.733 165.995 382.065C163.661 380.397 161.841 378.114 160.739 375.472C159.637 372.83 159.297 369.934 159.758 367.11L174.081 279.873L110.382 218.005C108.318 216.003 106.858 213.466 106.167 210.68C105.476 207.894 105.581 204.971 106.47 202.242C107.36 199.513 108.999 197.086 111.201 195.237C113.404 193.387 116.082 192.188 118.933 191.776L206.448 179.107L246.27 99.8035C247.551 97.2501 249.52 95.1023 251.957 93.6006C254.394 92.099 257.203 91.3028 260.069 91.3013ZM260.069 141.054L230.465 200.032C229.354 202.25 227.721 204.168 225.705 205.621C223.689 207.075 221.351 208.022 218.889 208.38L154.309 217.728L201.385 263.438C203.165 265.164 204.499 267.293 205.276 269.643C206.052 271.993 206.248 274.495 205.846 276.937L195.242 341.465L252.83 311.023C255.059 309.843 257.545 309.227 260.069 309.227C262.593 309.227 265.078 309.843 267.308 311.023L324.895 341.465L314.291 276.937C313.892 274.498 314.089 271.999 314.866 269.651C315.642 267.304 316.975 265.178 318.752 263.453L365.828 217.728L301.264 208.38C298.802 208.022 296.463 207.075 294.448 205.621C292.432 204.168 290.799 202.25 289.688 200.032L260.069 141.054Z" fill="black"/>
<path fill-rule="evenodd" clip-rule="evenodd" d="M256.304 475.613C377.069 475.613 474.969 377.714 474.969 256.948C474.969 136.183 377.069 38.283 256.304 38.283C135.538 38.283 37.6387 136.183 37.6387 256.948C37.6387 377.714 135.538 475.613 256.304 475.613ZM256.304 512.948C397.689 512.948 512.304 398.333 512.304 256.948C512.304 115.563 397.689 0.948242 256.304 0.948242C114.919 0.948242 0.303955 115.563 0.303955 256.948C0.303955 398.333 114.919 512.948 256.304 512.948Z" fill="black"/>
</svg>
