<svg width="322" height="306" viewBox="0 0 322 306" fill="none" xmlns="http://www.w3.org/2000/svg">
<path d="M250.121 305.45C247.519 305.444 244.958 304.806 242.657 303.593L160.842 260.691L79.0257 303.593C76.3765 304.977 73.3924 305.596 70.4096 305.379C67.4268 305.162 64.5641 304.119 62.1442 302.366C59.7244 300.613 57.8435 298.222 56.7138 295.46C55.5842 292.698 55.2505 289.677 55.7506 286.736L71.369 195.873L5.17146 131.519C3.03 129.434 1.51574 126.793 0.799676 123.895C0.0836159 120.997 0.194274 117.957 1.11916 115.118C2.04404 112.28 3.74631 109.755 6.03375 107.83C8.32118 105.905 11.1027 104.657 14.0641 104.225L105.543 90.9702L146.459 8.30313C147.933 5.80328 150.036 3.73075 152.56 2.29075C155.084 0.850761 157.942 0.0932617 160.85 0.0932617C163.757 0.0932617 166.615 0.850761 169.139 2.29075C171.663 3.73075 173.766 5.80328 175.24 8.30313L216.14 90.9702L307.619 104.225C310.58 104.657 313.362 105.905 315.649 107.83C317.937 109.755 319.639 112.28 320.564 115.118C321.489 117.957 321.599 120.997 320.883 123.895C320.167 126.793 318.653 129.434 316.512 131.519L250.314 195.873L265.949 286.736C266.343 289.033 266.231 291.388 265.618 293.637C265.006 295.886 263.908 297.975 262.403 299.757C260.897 301.539 259.019 302.972 256.901 303.955C254.782 304.938 252.474 305.449 250.138 305.45H250.121Z" fill="#FDC500"/>
</svg>
