<svg width="174" height="512" viewBox="0 0 174 512" fill="none" xmlns="http://www.w3.org/2000/svg">
<path d="M104.893 155.32C73.9225 144.73 44.4817 136.101 44.4817 110.411C44.4817 86.2889 70.099 77.66 85.9665 77.66C104.51 77.66 115.981 86.6811 122.481 95.31C128.025 102.762 137.583 105.704 145.995 102.174C157.848 97.075 161.863 81.7783 153.833 71.1883C144.657 58.6372 128.981 45.1056 103.746 40.7911V19.6111C103.746 8.825 95.1428 0 84.6282 0C74.1137 0 65.5108 8.825 65.5108 19.6111V41.3794C39.32 46.6744 4.52631 68.6389 4.52631 111.195C4.52631 161.596 48.6875 177.088 81.3783 189.051C117.51 202.191 133.569 214.349 133.569 236.902C133.569 263.573 109.672 274.556 88.2605 274.556C61.305 274.556 46.7758 256.317 39.32 242.001C34.7318 232.784 23.6437 229.254 14.4674 233.176L13.3203 233.764C2.61458 238.275 -2.16478 251.022 2.99692 261.612C12.3644 280.243 30.3348 302.992 65.5108 311.228V333.389C65.5108 344.175 74.1137 353 84.6282 353C95.1428 353 103.746 344.175 103.746 333.389V312.209C104.893 312.013 173.907 304.168 173.907 236.314C174.289 192.581 146.186 170.028 104.893 155.32Z" fill="black"/>
<circle cx="87.3848" cy="471.04" r="40.96" fill="black"/>
</svg>
