<svg width="289" height="513" viewBox="0 0 289 513" fill="none" xmlns="http://www.w3.org/2000/svg">
<path fill-rule="evenodd" clip-rule="evenodd" d="M117.977 446.112C117.977 438.169 121.132 430.552 126.748 424.935C132.365 419.319 139.983 416.163 147.925 416.163C155.868 416.163 163.486 419.319 169.103 424.935C174.719 430.552 177.874 438.169 177.874 446.112C177.874 454.055 174.719 461.673 169.103 467.289C163.486 472.906 155.868 476.061 147.925 476.061C139.983 476.061 132.365 472.906 126.748 467.289C121.132 461.673 117.977 454.055 117.977 446.112ZM147.925 453.599C145.94 453.599 144.035 452.811 142.631 451.407C141.227 450.002 140.438 448.098 140.438 446.112C140.438 444.127 141.227 442.222 142.631 440.818C144.035 439.414 145.94 438.625 147.925 438.625C149.911 438.625 151.816 439.414 153.22 440.818C154.624 442.222 155.413 444.127 155.413 446.112C155.413 448.098 154.624 450.002 153.22 451.407C151.816 452.811 149.911 453.599 147.925 453.599Z" fill="black"/>
<path d="M86.5911 420.707C83.2548 428.761 81.5376 437.394 81.5376 446.112C81.5376 463.719 88.532 480.605 100.982 493.055C113.432 505.505 130.318 512.5 147.925 512.5C165.532 512.5 182.418 505.505 194.868 493.055C207.318 480.605 214.313 463.719 214.313 446.112C214.313 437.394 212.596 428.761 209.259 420.707C205.923 412.652 201.033 405.334 194.868 399.169C188.704 393.004 181.385 388.114 173.331 384.778C165.276 381.442 156.643 379.725 147.925 379.725C139.207 379.725 130.574 381.442 122.52 384.778C114.465 388.114 107.147 393.004 100.982 399.169C94.8174 405.334 89.9273 412.652 86.5911 420.707ZM147.925 496.858C141.261 496.858 134.662 495.546 128.506 492.995C122.349 490.445 116.755 486.707 112.042 481.995C107.33 477.283 103.592 471.689 101.042 465.532C98.4919 459.375 97.1793 452.776 97.1793 446.112C97.1793 439.448 98.4919 432.849 101.042 426.693C103.592 420.536 107.33 414.942 112.042 410.229C116.755 405.517 122.349 401.779 128.506 399.229C134.662 396.679 141.261 395.366 147.925 395.366C161.384 395.366 174.291 400.713 183.808 410.229C193.325 419.746 198.671 432.654 198.671 446.112C198.671 459.571 193.325 472.478 183.808 481.995C174.291 491.512 161.384 496.858 147.925 496.858Z" fill="black" stroke="black"/>
<path fill-rule="evenodd" clip-rule="evenodd" d="M144.406 119.864C126.475 119.864 111.94 134.613 111.94 152.808C111.94 171.002 126.475 185.752 144.406 185.752C162.337 185.752 176.873 171.002 176.873 152.808C176.873 134.613 162.337 119.864 144.406 119.864ZM80.9268 152.808C80.9268 117.233 109.347 88.3948 144.406 88.3948C179.465 88.3948 207.886 117.233 207.886 152.808C207.886 188.382 179.465 217.221 144.406 217.221C109.347 217.221 80.9268 188.382 80.9268 152.808Z" fill="black"/>
<path fill-rule="evenodd" clip-rule="evenodd" d="M42.751 42.255C69.7116 15.1996 106.278 0 144.406 0C182.534 0 219.101 15.1996 246.061 42.255C273.022 69.3104 288.168 106.005 288.168 144.268C288.168 160.584 286.443 174.933 281.958 188.512C277.449 202.161 270.409 214.258 260.713 226.399C260.588 226.555 260.46 226.709 260.33 226.86L156.151 347.489C153.199 350.907 148.914 352.871 144.406 352.871C139.899 352.871 135.613 350.907 132.661 347.489L28.4824 226.86C28.3519 226.709 28.2243 226.555 28.0997 226.399C18.403 214.258 11.3631 202.161 6.85471 188.512C2.36924 174.933 0.644043 160.584 0.644043 144.268C0.644043 106.005 15.7904 69.3104 42.751 42.255ZM144.406 31.193C114.522 31.193 85.8618 43.1062 64.7305 64.3118C43.5992 85.5174 31.7278 114.278 31.7278 144.268C31.7278 158.382 33.2241 169.205 36.3597 178.698C39.4484 188.048 44.3766 196.861 52.1728 206.663L144.406 313.46L236.64 206.663C244.436 196.861 249.364 188.048 252.453 178.698C255.588 169.205 257.085 158.382 257.085 144.268C257.085 114.278 245.213 85.5174 224.082 64.3118C202.951 43.1062 174.29 31.193 144.406 31.193Z" fill="black"/>
</svg>
