<svg width="513" height="513" viewBox="0 0 513 513" fill="none" xmlns="http://www.w3.org/2000/svg">
<path d="M259.982 91.3013C262.848 91.3028 265.656 92.099 268.093 93.6006C270.53 95.1023 272.5 97.2501 273.781 99.8035L313.603 179.107L401.118 191.776C403.969 192.188 406.647 193.387 408.849 195.237C411.052 197.086 412.69 199.513 413.58 202.242C414.47 204.971 414.575 207.894 413.884 210.68C413.193 213.466 411.733 216.003 409.669 218.005L345.969 279.873L360.293 367.11C360.753 369.934 360.413 372.83 359.311 375.472C358.209 378.114 356.389 380.397 354.056 382.065C351.722 383.733 348.968 384.719 346.102 384.913C343.237 385.107 340.374 384.5 337.835 383.161L259.982 342.018L182.129 383.161C179.59 384.5 176.727 385.107 173.862 384.913C170.996 384.719 168.242 383.733 165.908 382.065C163.575 380.397 161.754 378.114 160.653 375.472C159.551 372.83 159.211 369.934 159.671 367.11L173.994 279.873L110.295 218.005C108.231 216.003 106.771 213.466 106.08 210.68C105.389 207.894 105.494 204.971 106.384 202.242C107.273 199.513 108.912 197.086 111.115 195.237C113.317 193.387 115.995 192.188 118.846 191.776L206.361 179.107L246.183 99.8035C247.464 97.2501 249.433 95.1023 251.871 93.6006C254.308 92.099 257.116 91.3028 259.982 91.3013ZM259.982 141.054L230.378 200.032C229.267 202.25 227.634 204.168 225.618 205.621C223.603 207.075 221.264 208.022 218.802 208.38L154.222 217.728L201.299 263.438C203.078 265.164 204.412 267.293 205.189 269.643C205.965 271.993 206.161 274.495 205.759 276.937L195.156 341.465L252.743 311.023C254.972 309.843 257.458 309.227 259.982 309.227C262.506 309.227 264.992 309.843 267.221 311.023L324.808 341.465L314.205 276.937C313.805 274.498 314.002 271.999 314.779 269.651C315.555 267.304 316.889 265.178 318.665 263.453L365.742 217.728L301.178 208.38C298.715 208.022 296.377 207.075 294.361 205.621C292.345 204.168 290.712 202.25 289.601 200.032L259.982 141.054Z" fill="black"/>
<path d="M343.546 384.948C341.001 384.942 338.495 384.322 336.245 383.142L256.217 341.414L176.19 383.142C173.598 384.488 170.679 385.09 167.762 384.879C164.844 384.668 162.044 383.653 159.677 381.949C157.31 380.244 155.47 377.918 154.365 375.232C153.26 372.546 152.934 369.607 153.423 366.747L168.7 278.37L103.95 215.778C101.855 213.749 100.374 211.181 99.6733 208.362C98.9729 205.543 99.0811 202.586 99.9858 199.825C100.89 197.064 102.556 194.609 104.793 192.737C107.03 190.865 109.751 189.65 112.648 189.23L202.128 176.338L242.149 95.9334C243.591 93.502 245.648 91.4862 248.117 90.0856C250.586 88.685 253.381 87.9482 256.225 87.9482C259.069 87.9482 261.864 88.685 264.333 90.0856C266.802 91.4862 268.859 93.502 270.301 95.9334L310.307 176.338L399.787 189.23C402.683 189.65 405.404 190.865 407.642 192.737C409.879 194.609 411.544 197.064 412.449 199.825C413.353 202.586 413.462 205.543 412.761 208.362C412.061 211.181 410.58 213.749 408.485 215.778L343.734 278.37L359.027 366.747C359.413 368.981 359.303 371.271 358.704 373.459C358.105 375.646 357.032 377.677 355.559 379.411C354.086 381.144 352.249 382.538 350.177 383.494C348.105 384.451 345.847 384.947 343.562 384.948H343.546Z" fill="black"/>
</svg>
