<svg width="289" height="513" viewBox="0 0 289 513" fill="none" xmlns="http://www.w3.org/2000/svg">
<path fill-rule="evenodd" clip-rule="evenodd" d="M112.082 446.112C112.082 438.169 115.237 430.552 120.854 424.935C126.47 419.319 134.088 416.163 142.031 416.163C149.974 416.163 157.592 419.319 163.208 424.935C168.825 430.552 171.98 438.169 171.98 446.112C171.98 454.055 168.825 461.673 163.208 467.289C157.592 472.906 149.974 476.061 142.031 476.061C134.088 476.061 126.47 472.906 120.854 467.289C115.237 461.673 112.082 454.055 112.082 446.112ZM142.031 453.6C140.045 453.6 138.141 452.811 136.737 451.407C135.333 450.002 134.544 448.098 134.544 446.112C134.544 444.127 135.333 442.222 136.737 440.818C138.141 439.414 140.045 438.625 142.031 438.625C144.017 438.625 145.921 439.414 147.325 440.818C148.729 442.222 149.518 444.127 149.518 446.112C149.518 448.098 148.729 450.002 147.325 451.407C145.921 452.811 144.017 453.6 142.031 453.6Z" fill="black"/>
<path d="M80.697 420.707C77.3607 428.761 75.6436 437.394 75.6436 446.112C75.6436 463.719 82.638 480.605 95.0881 493.055C107.538 505.506 124.424 512.5 142.031 512.5C159.638 512.5 176.524 505.506 188.974 493.055C201.425 480.605 208.419 463.719 208.419 446.112C208.419 437.394 206.702 428.761 203.365 420.707C200.029 412.652 195.139 405.334 188.974 399.169C182.81 393.004 175.491 388.114 167.437 384.778C159.382 381.442 150.749 379.725 142.031 379.725C133.313 379.725 124.68 381.442 116.626 384.778C108.571 388.114 101.253 393.004 95.0881 399.169C88.9234 405.334 84.0333 412.652 80.697 420.707ZM142.031 496.858C135.367 496.858 128.768 495.546 122.612 492.995C116.455 490.445 110.861 486.707 106.148 481.995C101.436 477.283 97.6983 471.689 95.1481 465.532C92.5978 459.375 91.2853 452.776 91.2853 446.112C91.2853 439.448 92.5978 432.849 95.1481 426.693C97.6983 420.536 101.436 414.942 106.148 410.229C110.861 405.517 116.455 401.779 122.612 399.229C128.768 396.679 135.367 395.366 142.031 395.366C155.49 395.366 168.397 400.713 177.914 410.229C187.431 419.746 192.777 432.654 192.777 446.112C192.777 459.571 187.431 472.478 177.914 481.995C168.397 491.512 155.49 496.858 142.031 496.858Z" fill="black" stroke="black"/>
<path d="M142.106 70.592C165.603 70.592 182.922 88.1146 182.922 111.919C182.922 135.723 165.603 153.246 142.106 153.246C118.623 153.246 101.289 135.723 101.289 111.919C101.289 88.1146 118.623 70.592 142.106 70.592ZM76.4863 208.397C84.0782 184.662 110.446 167.071 142.106 167.071C173.766 167.071 200.147 184.662 207.725 208.397H76.4863Z" fill="black"/>
<path fill-rule="evenodd" clip-rule="evenodd" d="M42.9957 42.255C69.9563 15.1996 106.523 0 144.651 0C182.779 0 219.346 15.1996 246.306 42.255C273.267 69.3105 288.413 106.006 288.413 144.268C288.413 160.584 286.688 174.933 282.203 188.512C277.694 202.161 270.654 214.258 260.958 226.399C260.833 226.555 260.705 226.709 260.575 226.86L156.396 347.489C153.444 350.907 149.158 352.871 144.651 352.871C140.144 352.871 135.858 350.907 132.906 347.489L28.727 226.86C28.5965 226.709 28.469 226.555 28.3443 226.399C18.6477 214.258 11.6078 202.161 7.09934 188.512C2.61387 174.933 0.888672 160.584 0.888672 144.268C0.888672 106.006 16.035 69.3105 42.9957 42.255ZM144.651 31.193C114.767 31.193 86.1065 43.1062 64.9752 64.3118C43.8439 85.5175 31.9724 114.278 31.9724 144.268C31.9724 158.382 33.4687 169.205 36.6044 178.698C39.6931 188.048 44.6212 196.861 52.4174 206.663L144.651 313.461L236.884 206.663C244.681 196.861 249.609 188.049 252.698 178.698C255.833 169.205 257.329 158.382 257.329 144.268C257.329 114.278 245.458 85.5175 224.327 64.3118C203.195 43.1062 174.535 31.193 144.651 31.193Z" fill="black"/>
</svg>
