<svg width="513" height="513" viewBox="0 0 513 513" fill="none" xmlns="http://www.w3.org/2000/svg">
<path d="M256.391 0.948242C115.079 0.948242 0.390625 115.636 0.390625 256.948C0.390625 398.26 115.079 512.948 256.391 512.948C397.703 512.948 512.391 398.26 512.391 256.948C512.391 115.636 397.703 0.948242 256.391 0.948242ZM256.391 77.7482C298.887 77.7482 333.191 112.052 333.191 154.548C333.191 197.044 298.887 231.348 256.391 231.348C213.895 231.348 179.591 197.044 179.591 154.548C179.591 112.052 213.895 77.7482 256.391 77.7482ZM256.391 441.268C192.391 441.268 135.815 408.5 102.791 358.836C103.559 307.892 205.191 279.988 256.391 279.988C307.335 279.988 409.223 307.892 409.991 358.836C376.967 408.5 320.391 441.268 256.391 441.268Z" fill="#00A4E0"/>
</svg>
