<svg clip-rule="evenodd" fill-rule="evenodd" height="199" image-rendering="optimizeQuality" shape-rendering="geometricPrecision" text-rendering="geometricPrecision" viewBox="0 0 138.323 114.939" width="239" xmlns="http://www.w3.org/2000/svg"><g fill="#00afef"><path d="m83.0964 78.1341 2.8977-2.0968 6.1701 8.4731-2.897 2.0968z"/><path d="m96.0525 82.7427c5.56452 0 10.0714 4.5076 10.0714 10.0714 0 5.56316-4.50692 10.0742-10.0714 10.0742-5.56316 0-10.0742-4.51102-10.0742-10.0742 0-5.56384 4.51102-10.0714 10.0742-10.0714zm0 1.82025c-4.55676 0-8.25051 3.69443-8.25051 8.2512 0 4.55676 3.69375 8.2512 8.25051 8.2512 4.55745 0 8.25256-3.69443 8.25256-8.2512 0-4.55676-3.69512-8.2512-8.25256-8.2512z"/><path d="m92.9466 54.2599-.8254-3.7716 15.8688-3.4022.825 3.7716z"/><path d="m122.495 29.3206c8.74074 0 15.8278 7.08504 15.8278 15.8285 0 8.74142-7.08709 15.8292-15.8278 15.8292-8.74483 0-15.8292-7.08777-15.8292-15.8292 0-8.74347 7.08435-15.8285 15.8292-15.8285zm0 2.40128c-7.41823 0-13.4279 6.01037-13.4279 13.4272 0 7.41413 6.00968 13.4279 13.4279 13.4279 7.41276 0 13.4272-6.01378 13.4272-13.4279 0-7.41686-6.01446-13.4272-13.4272-13.4272z"/><path d="m82.7946 37.4858-3.3366-1.3669 3.8726-9.7758 3.3408 1.3641z"/><path d="m90.1166 3.23903c7.25027 0 13.1323 5.87791 13.1323 13.1289 0 7.25368-5.88201 13.1316-13.1323 13.1316-7.25095 0-13.1323-5.87791-13.1323-13.1316 0-7.25095 5.88132-13.1289 13.1323-13.1289zm0 1.83868c-6.235 0-11.2902 5.05518-11.2902 11.2902 0 6.23773 5.05518 11.2936 11.2902 11.2936 6.235 0 11.2909-5.05586 11.2909-11.2936 0-6.235-5.05586-11.2902-11.2909-11.2902z"/><path d="m47.8494 87.9126-2.8389-2.3275 8.116-9.8741 2.8417 2.3275z"/><path d="m30.5789 30.8015 2.4675-3.0048 17.9833 14.6958-2.4695 3.0048z"/><path d="m69.2507 31.6577c14.6036 0 26.4427 11.8384 26.4427 26.4421 0 14.6029-11.8391 26.4414-26.4427 26.4414s-26.4414-11.8384-26.4414-26.4414c0-14.6036 11.8378-26.4421 26.4414-26.4421zm0 3.33189c-12.7643 0-23.1102 10.3445-23.1102 23.1102 0 12.7649 10.3459 23.1102 23.1102 23.1102 12.7656 0 23.1143-10.3452 23.1143-23.1102 0-12.7656-10.3486-23.1102-23.1143-23.1102z"/><path d="m37.4154 82.2013c9.03911 0 16.3672 7.33083 16.3672 16.3706 0 9.03911-7.3281 16.3672-16.3672 16.3672-9.0432 0-16.372-7.3281-16.372-16.3672 0-9.03979 7.32878-16.3706 16.372-16.3706zm0 2.46273c-7.68177 0-13.9079 6.22544-13.9079 13.9079 0 7.67904 6.22612 13.9072 13.9079 13.9072 7.67768 0 13.9065-6.22817 13.9065-13.9072 0-7.68245-6.22885-13.9079-13.9065-13.9079z"/><path d="m18.707 0c10.3302 0 18.7084 8.37478 18.7084 18.7077 0 10.3295-8.37819 18.7077-18.7084 18.7077-10.3323 0-18.707-8.37819-18.707-18.7077 0-10.3329 8.37478-18.7077 18.707-18.7077zm0 2.51257c-8.9442 0-16.1917 7.25095-16.1917 16.1952 0 8.94147 7.24753 16.1917 16.1917 16.1917 8.94215 0 16.1924-7.25027 16.1924-16.1917 0-8.9442-7.25027-16.1952-16.1924-16.1952z"/><path d="m18.707 4.40587c7.89821 0 14.3018 6.40432 14.3018 14.3018 0 7.89753-6.40364 14.2984-14.3018 14.2984-7.89684 0-14.3012-6.40091-14.3012-14.2984 0-7.89753 6.40432-14.3018 14.3012-14.3018z"/><path d="m90.1166 6.74639c5.31395 0 9.62219 4.30687 9.62219 9.6215 0 5.31395-4.30824 9.6215-9.62219 9.6215-5.31463 0-9.6215-4.30755-9.6215-9.6215 0-5.31463 4.30687-9.6215 9.6215-9.6215z"/><path d="m122.495 33.394c6.49035 0 11.7517 5.26206 11.7517 11.7551 0 6.49035-5.26138 11.7524-11.7517 11.7524-6.49103 0-11.7558-5.26206-11.7558-11.7524 0-6.49308 5.26479-11.7551 11.7558-11.7551z"/><path d="m96.0525 85.893c3.82416 0 6.92117 3.09702 6.92117 6.92117 0 3.82416-3.09702 6.92459-6.92117 6.92459-3.82348 0-6.92459-3.10043-6.92459-6.92459s3.10111-6.92117 6.92459-6.92117z"/><path d="m37.4154 86.5423c6.64056 0 12.0282 5.38496 12.0282 12.0296 0 6.64397-5.38769 12.0289-12.0282 12.0289-6.64465 0-12.0296-5.38496-12.0296-12.0289 0-6.64465 5.38496-12.0296 12.0296-12.0296z"/><path d="m69.2507 36.9628c11.6759 0 21.137 9.46105 21.137 21.1363 0 11.6753-9.46105 21.137-21.137 21.137-11.6725 0-21.137-9.46174-21.137-21.137 0-11.6753 9.46447-21.1363 21.137-21.1363z"/></g></svg>